<?xml version="1.0" encoding="UTF-8" standalone="no"?>
<!-- Generator: Adobe Illustrator 21.0.2, SVG Export Plug-In . SVG Version: 6.00 Build 0)  -->

<svg
   xmlns:dc="http://purl.org/dc/elements/1.1/"
   xmlns:cc="http://creativecommons.org/ns#"
   xmlns:rdf="http://www.w3.org/1999/02/22-rdf-syntax-ns#"
   xmlns:svg="http://www.w3.org/2000/svg"
   xmlns="http://www.w3.org/2000/svg"
   xmlns:sodipodi="http://sodipodi.sourceforge.net/DTD/sodipodi-0.dtd"
   xmlns:inkscape="http://www.inkscape.org/namespaces/inkscape"
   version="1.2"
   id="Layer_1"
   x="0px"
   y="0px"
   viewBox="0 0 32 32"
   overflow="scroll"
   xml:space="preserve"
   inkscape:version="0.91 r13725"
   sodipodi:docname="icon-email.svg"
   width="32"
   height="32"
   style="overflow:scroll"><metadata
     id="metadata37"><rdf:RDF><cc:Work
         rdf:about=""><dc:format>image/svg+xml</dc:format><dc:type
           rdf:resource="http://purl.org/dc/dcmitype/StillImage" /><dc:title></dc:title></cc:Work></rdf:RDF></metadata><defs
     id="defs35"><linearGradient
       id="SVGID_1_-3"
       gradientUnits="userSpaceOnUse"
       x1="14.0005"
       y1="30.743601"
       x2="32"
       y2="30.743601"><stop
         offset="0"
         style="stop-color:#C8C8C8"
         id="stop20-6" /><stop
         offset="1"
         style="stop-color:#CDCDCD"
         id="stop22-7" /></linearGradient><linearGradient
       id="SVGID_2_-5"
       gradientUnits="userSpaceOnUse"
       x1="28.664499"
       y1="36.447399"
       x2="50"
       y2="36.447399"><stop
         offset="0"
         style="stop-color:#D9D9D9"
         id="stop27-3" /><stop
         offset="1"
         style="stop-color:#E2E2E2"
         id="stop29-5" /></linearGradient></defs><sodipodi:namedview
     pagecolor="#ffffff"
     bordercolor="#666666"
     borderopacity="1"
     objecttolerance="10"
     gridtolerance="10"
     guidetolerance="10"
     inkscape:pageopacity="0"
     inkscape:pageshadow="2"
     inkscape:window-width="1855"
     inkscape:window-height="1056"
     id="namedview33"
     showgrid="false"
     inkscape:zoom="14.75"
     inkscape:cx="12.972099"
     inkscape:cy="6.5719859"
     inkscape:window-x="65"
     inkscape:window-y="24"
     inkscape:window-maximized="1"
     inkscape:current-layer="Layer_1" /><linearGradient
     id="SVGID_1_"
     gradientUnits="userSpaceOnUse"
     x1="14.0005"
     y1="30.743601"
     x2="32"
     y2="30.743601"><stop
       offset="0"
       style="stop-color:#C8C8C8"
       id="stop20" /><stop
       offset="1"
       style="stop-color:#CDCDCD"
       id="stop22" /></linearGradient><linearGradient
     id="SVGID_2_"
     gradientUnits="userSpaceOnUse"
     x1="28.664499"
     y1="36.447399"
     x2="50"
     y2="36.447399"><stop
       offset="0"
       style="stop-color:#D9D9D9"
       id="stop27" /><stop
       offset="1"
       style="stop-color:#E2E2E2"
       id="stop29" /></linearGradient><path
     d="m 30,28.169491 -27.9999998,0 c -1.10466698,0 -1.99999997951793,-0.895333 -1.99999997951793,-2 l 0,-20.0000002 c 0,-1.104667 0.89533299951793,-2 1.99999997951793,-2 l 27.9999998,0 c 1.104667,0 2,0.895333 2,2 l 0,20.0000002 c 0,1.104667 -0.895333,2 -2,2 z"
     id="path3"
     inkscape:connector-curvature="0"
     style="overflow:scroll;fill:#eaeaea" /><path
     d="m 4.0000002,28.169491 -2,0 c -1.10466698,0 -1.99999997951793,-0.895333 -1.99999997951793,-2 l 0,-20.0000002 c 0,-1.104667 0.89533299951793,-2 1.99999997951793,-2 l 0,0 c 1.104667,0 2,0.895333 2,2 l 0,22.0000002 z"
     id="path5"
     inkscape:connector-curvature="0"
     style="overflow:scroll;fill:#d54c3f" /><path
     d="m 28,28.169491 2,0 c 1.104667,0 2,-0.895333 2,-2 L 32,6.1694908 c 0,-1.104667 -0.895333,-2 -2,-2 l 0,0 c -1.104667,0 -2,0.895333 -2,2 l 0,22.0000002 z"
     id="path7"
     inkscape:connector-curvature="0"
     style="overflow:scroll;fill:#b63524" /><path
     d="M 31.145333,7.8094908 C 31.662,7.4474908 32,6.8481578 32,6.1694908 c 0,-1.104667 -0.895333,-2 -2,-2 -0.426,0 -0.821333,0.133333 -1.145333,0.36 0,0 -12.853334,9.3580002 -12.853334,9.3580002 l -0.0013,6.67e-4 -0.0013,-6.67e-4 L 3.1453992,4.5294908 c -0.324,-0.226667 -0.719333,-0.36 -1.145333,-0.36 -1.10466698,0 -1.999999979518,0.895333 -1.999999979518,2 0,0.678667 0.337999999518,1.278 0.854666999518,1.64 l -0.05333,-0.03933 L 16.00007,18.836161"
     id="path9"
     inkscape:connector-curvature="0"
     style="overflow:scroll;fill:#de5145" /><line
     x1="31.199333"
     y1="7.7701583"
     x2="16"
     y2="18.836159"
     id="line11"
     style="overflow:scroll;fill:#de5145" /><path
     d="m 30,4.1694908 c -0.426,0 -0.821333,0.133333 -1.145333,0.36 0,0 -12.853334,9.3580002 -12.853334,9.3580002 l -0.0013,6.67e-4 -0.0013,-6.67e-4 L 3.1453992,4.5294908 c -0.324,-0.226667 -0.719333,-0.36 -1.145333,-0.36 l 27.9999998,0 z"
     id="path13"
     inkscape:connector-curvature="0"
     style="overflow:scroll;fill:#efefef" /><path
     d="m 4.0006672,10.961491 -3.37066698,-3.3386672 -0.0013,0.0027 c 0.07067,0.06667 0.146,0.128 0.226,0.184 l -0.05333,-0.03933 3.19999998,2.3300002 -6.66e-4,0.885333"
     id="path15"
     inkscape:connector-curvature="0"
     style="overflow:scroll;fill:#c64132" /><polyline
     points="28.668,38.591 14,50 14.001,24.063 28.665,38.587 "
     id="polyline17"
     transform="matrix(0.66666667,0,0,0.66666667,-5.3333328,-5.1638422)"
     style="overflow:scroll;fill:#e3e3e3" /><polygon
     points="28.668,38.591 32,36 14.001,22.896 14.001,24.063 28.665,38.587 "
     id="polygon24"
     style="overflow:scroll;fill:url(#SVGID_1_-3)"
     transform="matrix(0.66666667,0,0,0.66666667,-5.3333328,-5.1638422)" /><polygon
     points="40.061,50 50,50 50,22.895 32,36 28.665,38.587 "
     id="polygon31"
     style="overflow:scroll;fill:url(#SVGID_2_-5)"
     transform="matrix(0.66666667,0,0,0.66666667,-5.3333328,-5.1638422)" /></svg>